# xmcd CD database file
#
# Track frame offsets:
#	150
#	11955
#	24147
#	38777
#	50705
#	62555
#	88280
#	98635
#	112177
#	125132
#	137317
#	156397
#	171397
#	185350
#	198170
#	208535
#	221050
#	233305
#
# Disc length: 3277 seconds
#
# Revision: 0
# Processed by: cddbd v1.5.1PL2 Copyright (c) Steve Scherf et al.
# Submitted via: CDex 1.51
#
DISCID=fc0ccb12
DTITLE=Teddy Wilson - Blues For Thomas Waller
DYEAR=1974
DGENRE=Jazz
TTITLE0=Honeysuckle Rose
TTITLE1=My Fate Is In Your Hands
TTITLE2=Ain't Cha Glad
TTITLE3=I've Got A Feeling I'm Falling
TTITLE4=Stealin' Apples
TTITLE5=Blues For Thomas Waller
TTITLE6=Handful Of Keys
TTITLE7=Striding After Fats
TTITLE8=Squeeze Me
TTITLE9=Zonky
TTITLE10=Blue Turning Grey Over You
TTITLE11=Ain't Misbehavin'
TTITLE12=Black And Blue
TTITLE13=Honeysuckle Rose (take 2)
TTITLE14=Keepin' Out Of Mischief Now
TTITLE15=Handful Of Keys (take 2)
TTITLE16=Squeeze Me (take 2)
TTITLE17=Honeysuckle Rose (take 3)
EXTD=YEAR: 1974
EXTT0=
EXTT1=
EXTT2=
EXTT3=
EXTT4=
EXTT5=
EXTT6=
EXTT7=
EXTT8=
EXTT9=
EXTT10=
EXTT11=
EXTT12=
EXTT13=
EXTT14=
EXTT15=
EXTT16=
EXTT17=
PLAYORDER=
